<svg width="113" height="164" viewBox="0 0 113 164" fill="none" xmlns="http://www.w3.org/2000/svg">
<path d="M19.8794 133.71L19.4954 135.15H22.8314L22.4714 133.71C22.2474 132.926 22.0314 132.094 21.8234 131.214C21.6154 130.334 21.4074 129.486 21.1994 128.67H21.1034C20.9114 129.502 20.7114 130.358 20.5034 131.238C20.3114 132.102 20.1034 132.926 19.8794 133.71ZM14.2154 141.63L19.1114 125.982H23.3594L28.2554 141.63H24.5114L23.5514 137.91H18.7754L17.8154 141.63H14.2154ZM29.6772 141.63V129.726H32.5572L32.7972 131.238H32.8932C33.4052 130.758 33.9652 130.342 34.5732 129.99C35.1812 129.622 35.8932 129.438 36.7092 129.438C38.0052 129.438 38.9412 129.862 39.5172 130.71C40.1092 131.558 40.4052 132.734 40.4052 134.238V141.63H36.8772V134.694C36.8772 133.83 36.7572 133.238 36.5172 132.918C36.2932 132.598 35.9252 132.438 35.4132 132.438C34.9652 132.438 34.5812 132.542 34.2612 132.75C33.9412 132.942 33.5892 133.222 33.2052 133.59V141.63H29.6772ZM47.6596 141.918C46.9236 141.918 46.2516 141.774 45.6436 141.486C45.0516 141.198 44.5396 140.79 44.1076 140.262C43.6916 139.718 43.3636 139.062 43.1236 138.294C42.8996 137.526 42.7876 136.654 42.7876 135.678C42.7876 134.702 42.9236 133.83 43.1956 133.062C43.4836 132.294 43.8516 131.646 44.2996 131.118C44.7636 130.574 45.2916 130.158 45.8836 129.87C46.4916 129.582 47.1076 129.438 47.7316 129.438C48.4036 129.438 48.9556 129.55 49.3876 129.774C49.8196 129.998 50.2436 130.302 50.6596 130.686L50.5156 128.862V124.806H54.0436V141.63H51.1636L50.9236 140.454H50.8276C50.4116 140.87 49.9236 141.222 49.3636 141.51C48.8036 141.782 48.2356 141.918 47.6596 141.918ZM48.5716 139.038C48.9556 139.038 49.2996 138.958 49.6036 138.798C49.9236 138.638 50.2276 138.358 50.5156 137.958V133.086C50.1956 132.798 49.8676 132.598 49.5316 132.486C49.1956 132.374 48.8676 132.318 48.5476 132.318C47.9876 132.318 47.4916 132.59 47.0596 133.134C46.6276 133.662 46.4116 134.494 46.4116 135.63C46.4116 136.814 46.5956 137.678 46.9636 138.222C47.3476 138.766 47.8836 139.038 48.5716 139.038ZM57.1694 141.63V129.726H60.0494L60.2894 131.814H60.3854C60.8174 130.998 61.3374 130.398 61.9454 130.014C62.5534 129.63 63.1614 129.438 63.7694 129.438C64.1054 129.438 64.3774 129.462 64.5854 129.51C64.8094 129.542 65.0094 129.598 65.1854 129.678L64.6094 132.726C64.3854 132.662 64.1774 132.614 63.9854 132.582C63.7934 132.55 63.5694 132.534 63.3134 132.534C62.8654 132.534 62.3934 132.694 61.8974 133.014C61.4174 133.334 61.0174 133.902 60.6974 134.718V141.63H57.1694ZM71.6095 141.918C70.8575 141.918 70.1295 141.782 69.4255 141.51C68.7215 141.222 68.0975 140.814 67.5535 140.286C67.0255 139.758 66.6015 139.11 66.2815 138.342C65.9615 137.558 65.8015 136.67 65.8015 135.678C65.8015 134.686 65.9615 133.806 66.2815 133.038C66.6015 132.254 67.0255 131.598 67.5535 131.07C68.0975 130.542 68.7215 130.142 69.4255 129.87C70.1295 129.582 70.8575 129.438 71.6095 129.438C72.3615 129.438 73.0815 129.582 73.7695 129.87C74.4735 130.142 75.0895 130.542 75.6175 131.07C76.1615 131.598 76.5935 132.254 76.9135 133.038C77.2335 133.806 77.3935 134.686 77.3935 135.678C77.3935 136.67 77.2335 137.558 76.9135 138.342C76.5935 139.11 76.1615 139.758 75.6175 140.286C75.0895 140.814 74.4735 141.222 73.7695 141.51C73.0815 141.782 72.3615 141.918 71.6095 141.918ZM71.6095 139.062C72.3295 139.062 72.8735 138.758 73.2415 138.15C73.6095 137.542 73.7935 136.718 73.7935 135.678C73.7935 134.638 73.6095 133.814 73.2415 133.206C72.8735 132.598 72.3295 132.294 71.6095 132.294C70.8735 132.294 70.3215 132.598 69.9535 133.206C69.6015 133.814 69.4255 134.638 69.4255 135.678C69.4255 136.718 69.6015 137.542 69.9535 138.15C70.3215 138.758 70.8735 139.062 71.6095 139.062ZM79.81 141.63V129.726H83.338V141.63H79.81ZM81.562 127.974C80.97 127.974 80.482 127.806 80.098 127.47C79.714 127.118 79.522 126.67 79.522 126.126C79.522 125.582 79.714 125.142 80.098 124.806C80.482 124.47 80.97 124.302 81.562 124.302C82.17 124.302 82.658 124.47 83.026 124.806C83.41 125.142 83.602 125.582 83.602 126.126C83.602 126.67 83.41 127.118 83.026 127.47C82.658 127.806 82.17 127.974 81.562 127.974ZM90.6908 141.918C89.9548 141.918 89.2828 141.774 88.6748 141.486C88.0828 141.198 87.5708 140.79 87.1388 140.262C86.7228 139.718 86.3948 139.062 86.1548 138.294C85.9308 137.526 85.8188 136.654 85.8188 135.678C85.8188 134.702 85.9548 133.83 86.2268 133.062C86.5148 132.294 86.8828 131.646 87.3308 131.118C87.7948 130.574 88.3228 130.158 88.9148 129.87C89.5228 129.582 90.1388 129.438 90.7628 129.438C91.4348 129.438 91.9868 129.55 92.4188 129.774C92.8508 129.998 93.2748 130.302 93.6908 130.686L93.5468 128.862V124.806H97.0748V141.63H94.1948L93.9548 140.454H93.8588C93.4428 140.87 92.9548 141.222 92.3948 141.51C91.8348 141.782 91.2668 141.918 90.6908 141.918ZM91.6028 139.038C91.9868 139.038 92.3308 138.958 92.6348 138.798C92.9548 138.638 93.2588 138.358 93.5468 137.958V133.086C93.2268 132.798 92.8988 132.598 92.5628 132.486C92.2268 132.374 91.8988 132.318 91.5788 132.318C91.0188 132.318 90.5228 132.59 90.0908 133.134C89.6588 133.662 89.4428 134.494 89.4428 135.63C89.4428 136.814 89.6268 137.678 89.9948 138.222C90.3788 138.766 90.9148 139.038 91.6028 139.038Z" fill="white"/>
<path fill-rule="evenodd" clip-rule="evenodd" d="M39.9861 1.78596C39.3482 0.690225 37.9597 0.292482 36.8384 0.884279C35.6491 1.51195 35.2218 3.00363 35.8984 4.16578L38.3734 8.417C29.4905 13.0773 23.2308 22.0595 22.3882 32.5697H88.6119C87.7851 22.2563 81.7422 13.4142 73.1229 8.6833L75.753 4.16575C76.4295 3.00361 76.0023 1.51195 74.813 0.884288C73.6917 0.292487 72.3032 0.69023 71.6652 1.78597L68.7846 6.734C65.6355 5.61137 62.2436 5.00008 58.7089 5.00008H52.2912C48.9585 5.00008 45.7527 5.54351 42.7577 6.5466L39.9861 1.78596ZM88.7089 35.076H22.2912V41.9684C22.2912 37.4698 18.6443 33.8229 14.1456 33.8229C9.64696 33.8229 6.00006 37.4698 6.00006 41.9684V73.2975C6.00006 77.7962 9.64696 81.4431 14.1456 81.4431C18.6443 81.4431 22.2912 77.7962 22.2912 73.2975V66.4811C22.2912 76.5327 27.2346 85.4297 34.8228 90.8736V107.133C34.8228 111.632 38.4697 115.279 42.9684 115.279C47.4671 115.279 51.114 111.632 51.114 107.133V96.4584C51.5045 96.4735 51.897 96.4811 52.2912 96.4811H58.633V107.133C58.633 111.632 62.2799 115.279 66.7785 115.279C71.2772 115.279 74.9241 111.632 74.9241 107.133V91.7256C83.2167 86.388 88.7089 77.0759 88.7089 66.4811V73.2975C88.7089 77.7962 92.3558 81.4431 96.8545 81.4431C101.353 81.4431 105 77.7962 105 73.2975V41.9684C105 37.4698 101.353 33.8229 96.8545 33.8229C92.3558 33.8229 88.7089 37.4698 88.7089 41.9684V35.076ZM41.0887 22.5444C42.4729 22.5444 43.595 21.4223 43.595 20.0381C43.595 18.6538 42.4729 17.5317 41.0887 17.5317C39.7045 17.5317 38.5823 18.6538 38.5823 20.0381C38.5823 21.4223 39.7045 22.5444 41.0887 22.5444ZM69.9115 22.5444C71.2957 22.5444 72.4178 21.4223 72.4178 20.0381C72.4178 18.6539 71.2957 17.5318 69.9115 17.5318C68.5273 17.5318 67.4051 18.6539 67.4051 20.0381C67.4051 21.4223 68.5273 22.5444 69.9115 22.5444Z" fill="white"/>
</svg>
