<svg width="94" height="164" viewBox="0 0 94 184" fill="none" xmlns="http://www.w3.org/2000/svg">
<path fill-rule="evenodd" clip-rule="evenodd" d="M69.8779 0C70.6147 6.85444 67.9394 13.7314 63.9765 18.6771C60.013 23.6155 53.5109 27.4634 47.1442 26.9548C46.2719 20.2399 49.4909 13.238 53.1605 8.86699C57.2594 3.92127 64.1691 0.236116 69.8779 0ZM90.923 39.6289C89.8716 40.274 78.3751 47.3279 78.503 61.6544C78.6609 78.9675 93.4271 84.8816 93.9853 85.1052C93.9928 85.1082 93.9977 85.1101 94 85.1111C93.9954 85.1256 93.9882 85.1492 93.9784 85.1817C93.7048 86.0792 91.3762 93.719 86.0114 101.604C81.195 108.663 76.2039 115.7 68.339 115.853C64.5613 115.921 62.0352 114.823 59.4099 113.681C56.6606 112.485 53.8025 111.242 49.2842 111.242C44.5528 111.242 41.5625 112.521 38.6806 113.754C36.1827 114.823 33.7661 115.856 30.3677 115.992C22.772 116.284 16.9951 108.356 12.1423 101.319C2.23297 86.9233 -5.3482 60.6386 4.83035 42.9036C9.87961 34.0909 18.9086 28.5153 28.7161 28.3692C32.9413 28.2863 37.0354 29.9167 40.6189 31.3438C43.3542 32.4331 45.792 33.404 47.7636 33.404C49.5326 33.404 51.9053 32.4648 54.6723 31.3694C59.0293 29.6447 64.3642 27.5329 69.8596 28.0915C73.6283 28.2523 84.1925 29.6188 90.9806 39.5933C90.9677 39.6015 90.9484 39.6133 90.923 39.6289Z" fill="white"/>
<path d="M30.3725 152V140.096H33.9005V152H30.3725ZM32.1245 138.344C31.5325 138.344 31.0445 138.176 30.6605 137.84C30.2765 137.488 30.0845 137.04 30.0845 136.496C30.0845 135.952 30.2765 135.512 30.6605 135.176C31.0445 134.84 31.5325 134.672 32.1245 134.672C32.7325 134.672 33.2205 134.84 33.5885 135.176C33.9725 135.512 34.1645 135.952 34.1645 136.496C34.1645 137.04 33.9725 137.488 33.5885 137.84C33.2205 138.176 32.7325 138.344 32.1245 138.344ZM43.6533 152.288C42.5973 152.288 41.6293 152.104 40.7493 151.736C39.8853 151.352 39.1413 150.808 38.5173 150.104C37.8933 149.4 37.4053 148.544 37.0533 147.536C36.7173 146.528 36.5493 145.384 36.5493 144.104C36.5493 142.824 36.7173 141.688 37.0533 140.696C37.4053 139.688 37.8933 138.848 38.5173 138.176C39.1413 137.488 39.8853 136.968 40.7493 136.616C41.6293 136.248 42.5973 136.064 43.6533 136.064C44.7093 136.064 45.6693 136.248 46.5333 136.616C47.4133 136.968 48.1653 137.488 48.7893 138.176C49.4133 138.864 49.8933 139.712 50.2293 140.72C50.5813 141.712 50.7573 142.84 50.7573 144.104C50.7573 145.384 50.5813 146.528 50.2293 147.536C49.8933 148.544 49.4133 149.4 48.7893 150.104C48.1653 150.808 47.4133 151.352 46.5333 151.736C45.6693 152.104 44.7093 152.288 43.6533 152.288ZM43.6533 149.24C44.7253 149.24 45.5733 148.784 46.1973 147.872C46.8213 146.944 47.1333 145.688 47.1333 144.104C47.1333 142.536 46.8213 141.312 46.1973 140.432C45.5733 139.552 44.7253 139.112 43.6533 139.112C42.5813 139.112 41.7333 139.552 41.1093 140.432C40.4853 141.312 40.1733 142.536 40.1733 144.104C40.1733 145.688 40.4853 146.944 41.1093 147.872C41.7333 148.784 42.5813 149.24 43.6533 149.24ZM58.4756 152.288C57.4516 152.288 56.4276 152.104 55.4036 151.736C54.3956 151.352 53.4916 150.784 52.6916 150.032L54.7076 147.608C55.2676 148.088 55.8836 148.48 56.5556 148.784C57.2436 149.088 57.9156 149.24 58.5716 149.24C59.3076 149.24 59.8516 149.104 60.2036 148.832C60.5716 148.56 60.7556 148.192 60.7556 147.728C60.7556 147.488 60.6996 147.28 60.5876 147.104C60.4916 146.928 60.3396 146.776 60.1316 146.648C59.9396 146.504 59.6996 146.376 59.4116 146.264C59.1396 146.136 58.8356 146 58.4996 145.856L56.4596 144.992C56.0596 144.832 55.6676 144.624 55.2836 144.368C54.9156 144.112 54.5796 143.816 54.2756 143.48C53.9876 143.128 53.7556 142.728 53.5796 142.28C53.4036 141.816 53.3156 141.296 53.3156 140.72C53.3156 140.08 53.4516 139.48 53.7236 138.92C53.9956 138.344 54.3796 137.848 54.8756 137.432C55.3716 137 55.9556 136.664 56.6276 136.424C57.3156 136.184 58.0676 136.064 58.8836 136.064C59.7956 136.064 60.6916 136.24 61.5716 136.592C62.4676 136.944 63.2516 137.456 63.9236 138.128L62.1236 140.36C61.6116 139.96 61.0996 139.656 60.5876 139.448C60.0756 139.224 59.5076 139.112 58.8836 139.112C58.2756 139.112 57.7876 139.24 57.4196 139.496C57.0676 139.736 56.8916 140.08 56.8916 140.528C56.8916 140.768 56.9476 140.976 57.0596 141.152C57.1876 141.312 57.3556 141.464 57.5636 141.608C57.7876 141.736 58.0436 141.864 58.3316 141.992C58.6196 142.104 58.9316 142.232 59.2676 142.376L61.2836 143.192C62.2436 143.576 62.9956 144.104 63.5396 144.776C64.0996 145.448 64.3796 146.336 64.3796 147.44C64.3796 148.096 64.2436 148.72 63.9716 149.312C63.7156 149.888 63.3316 150.4 62.8196 150.848C62.3236 151.28 61.7076 151.632 60.9716 151.904C60.2356 152.16 59.4036 152.288 58.4756 152.288Z" fill="white"/>
</svg>
